<mxfile host="Electron" modified="2024-01-14T16:19:02.228Z" agent="Mozilla/5.0 (Windows NT 10.0; Win64; x64) AppleWebKit/537.36 (KHTML, like Gecko) draw.io/22.1.18 Chrome/120.0.6099.199 Electron/28.1.2 Safari/537.36" etag="ICDx6cwJ_3VDvFScxBP9" version="22.1.18" type="device">
  <diagram name="Page-1" id="9pUu9Wl4DCJIgBNYWcug">
    <mxGraphModel dx="1016" dy="619" grid="1" gridSize="10" guides="1" tooltips="1" connect="1" arrows="1" fold="1" page="1" pageScale="1" pageWidth="850" pageHeight="1100" math="0" shadow="0">
      <root>
        <mxCell id="0" />
        <mxCell id="1" parent="0" />
        <mxCell id="Z43VmYHaNltjWb4G_ZYM-8" style="edgeStyle=orthogonalEdgeStyle;rounded=0;orthogonalLoop=1;jettySize=auto;html=1;" parent="1" source="Z43VmYHaNltjWb4G_ZYM-1" target="Z43VmYHaNltjWb4G_ZYM-2" edge="1">
          <mxGeometry relative="1" as="geometry" />
        </mxCell>
        <mxCell id="Z43VmYHaNltjWb4G_ZYM-1" value="START" style="html=1;dashed=0;whiteSpace=wrap;shape=mxgraph.dfd.start" parent="1" vertex="1">
          <mxGeometry x="90" y="40" width="80" height="30" as="geometry" />
        </mxCell>
        <mxCell id="Z43VmYHaNltjWb4G_ZYM-15" style="edgeStyle=orthogonalEdgeStyle;rounded=0;orthogonalLoop=1;jettySize=auto;html=1;entryX=0;entryY=0.5;entryDx=0;entryDy=0;" parent="1" source="Z43VmYHaNltjWb4G_ZYM-2" target="Z43VmYHaNltjWb4G_ZYM-14" edge="1">
          <mxGeometry relative="1" as="geometry" />
        </mxCell>
        <mxCell id="Z43VmYHaNltjWb4G_ZYM-24" style="edgeStyle=orthogonalEdgeStyle;rounded=0;orthogonalLoop=1;jettySize=auto;html=1;entryX=0;entryY=0.5;entryDx=0;entryDy=0;" parent="1" source="Z43VmYHaNltjWb4G_ZYM-2" target="Z43VmYHaNltjWb4G_ZYM-3" edge="1">
          <mxGeometry relative="1" as="geometry">
            <Array as="points">
              <mxPoint x="60" y="140" />
              <mxPoint x="60" y="380" />
            </Array>
          </mxGeometry>
        </mxCell>
        <mxCell id="Z43VmYHaNltjWb4G_ZYM-2" value="Borrow Book" style="rhombus;whiteSpace=wrap;html=1;" parent="1" vertex="1">
          <mxGeometry x="90" y="100" width="80" height="80" as="geometry" />
        </mxCell>
        <mxCell id="Z43VmYHaNltjWb4G_ZYM-10" style="edgeStyle=orthogonalEdgeStyle;rounded=0;orthogonalLoop=1;jettySize=auto;html=1;entryX=0;entryY=0.5;entryDx=0;entryDy=0;" parent="1" source="Z43VmYHaNltjWb4G_ZYM-3" target="Z43VmYHaNltjWb4G_ZYM-4" edge="1">
          <mxGeometry relative="1" as="geometry">
            <Array as="points">
              <mxPoint x="125" y="430" />
              <mxPoint x="60" y="430" />
              <mxPoint x="60" y="540" />
            </Array>
          </mxGeometry>
        </mxCell>
        <mxCell id="Z43VmYHaNltjWb4G_ZYM-21" style="edgeStyle=orthogonalEdgeStyle;rounded=0;orthogonalLoop=1;jettySize=auto;html=1;entryX=0;entryY=0.5;entryDx=0;entryDy=0;" parent="1" source="Z43VmYHaNltjWb4G_ZYM-3" target="Z43VmYHaNltjWb4G_ZYM-20" edge="1">
          <mxGeometry relative="1" as="geometry" />
        </mxCell>
        <mxCell id="Z43VmYHaNltjWb4G_ZYM-3" value="Return Book" style="rhombus;whiteSpace=wrap;html=1;" parent="1" vertex="1">
          <mxGeometry x="85" y="340" width="80" height="80" as="geometry" />
        </mxCell>
        <mxCell id="Z43VmYHaNltjWb4G_ZYM-11" style="edgeStyle=orthogonalEdgeStyle;rounded=0;orthogonalLoop=1;jettySize=auto;html=1;" parent="1" source="Z43VmYHaNltjWb4G_ZYM-4" target="Z43VmYHaNltjWb4G_ZYM-5" edge="1">
          <mxGeometry relative="1" as="geometry" />
        </mxCell>
        <mxCell id="Z43VmYHaNltjWb4G_ZYM-30" style="edgeStyle=orthogonalEdgeStyle;rounded=0;orthogonalLoop=1;jettySize=auto;html=1;entryX=0;entryY=0.5;entryDx=0;entryDy=0;" parent="1" source="Z43VmYHaNltjWb4G_ZYM-4" target="Z43VmYHaNltjWb4G_ZYM-29" edge="1">
          <mxGeometry relative="1" as="geometry" />
        </mxCell>
        <mxCell id="Z43VmYHaNltjWb4G_ZYM-4" value="View Books" style="rhombus;whiteSpace=wrap;html=1;" parent="1" vertex="1">
          <mxGeometry x="85" y="500" width="80" height="80" as="geometry" />
        </mxCell>
        <mxCell id="Z43VmYHaNltjWb4G_ZYM-46" style="edgeStyle=orthogonalEdgeStyle;rounded=0;orthogonalLoop=1;jettySize=auto;html=1;entryX=0;entryY=0.5;entryDx=0;entryDy=0;" parent="1" source="Z43VmYHaNltjWb4G_ZYM-5" target="Z43VmYHaNltjWb4G_ZYM-44" edge="1">
          <mxGeometry relative="1" as="geometry" />
        </mxCell>
        <mxCell id="Z43VmYHaNltjWb4G_ZYM-48" style="edgeStyle=orthogonalEdgeStyle;rounded=0;orthogonalLoop=1;jettySize=auto;html=1;entryX=0;entryY=0.5;entryDx=0;entryDy=0;" parent="1" source="Z43VmYHaNltjWb4G_ZYM-5" target="Z43VmYHaNltjWb4G_ZYM-6" edge="1">
          <mxGeometry relative="1" as="geometry">
            <Array as="points">
              <mxPoint x="50" y="860" />
              <mxPoint x="50" y="990" />
            </Array>
          </mxGeometry>
        </mxCell>
        <mxCell id="Z43VmYHaNltjWb4G_ZYM-5" value="View Borrow History" style="rhombus;whiteSpace=wrap;html=1;" parent="1" vertex="1">
          <mxGeometry x="75" y="810" width="100" height="100" as="geometry" />
        </mxCell>
        <mxCell id="Z43VmYHaNltjWb4G_ZYM-47" style="edgeStyle=orthogonalEdgeStyle;rounded=0;orthogonalLoop=1;jettySize=auto;html=1;entryX=0;entryY=0.5;entryDx=0;entryDy=0;" parent="1" source="Z43VmYHaNltjWb4G_ZYM-6" target="Z43VmYHaNltjWb4G_ZYM-45" edge="1">
          <mxGeometry relative="1" as="geometry" />
        </mxCell>
        <mxCell id="Z43VmYHaNltjWb4G_ZYM-61" style="edgeStyle=orthogonalEdgeStyle;rounded=0;orthogonalLoop=1;jettySize=auto;html=1;entryX=0;entryY=0.5;entryDx=0;entryDy=0;" parent="1" source="Z43VmYHaNltjWb4G_ZYM-6" target="Z43VmYHaNltjWb4G_ZYM-7" edge="1">
          <mxGeometry relative="1" as="geometry">
            <Array as="points">
              <mxPoint x="125" y="1060" />
              <mxPoint x="65" y="1060" />
              <mxPoint x="65" y="1155" />
            </Array>
          </mxGeometry>
        </mxCell>
        <mxCell id="Z43VmYHaNltjWb4G_ZYM-6" value="View Return History" style="rhombus;whiteSpace=wrap;html=1;" parent="1" vertex="1">
          <mxGeometry x="75" y="940" width="100" height="100" as="geometry" />
        </mxCell>
        <mxCell id="Z43VmYHaNltjWb4G_ZYM-52" style="edgeStyle=orthogonalEdgeStyle;rounded=0;orthogonalLoop=1;jettySize=auto;html=1;entryX=0;entryY=0.5;entryDx=0;entryDy=0;" parent="1" source="Z43VmYHaNltjWb4G_ZYM-7" target="Z43VmYHaNltjWb4G_ZYM-51" edge="1">
          <mxGeometry relative="1" as="geometry" />
        </mxCell>
        <mxCell id="Z43VmYHaNltjWb4G_ZYM-7" value="View Overdue" style="rhombus;whiteSpace=wrap;html=1;" parent="1" vertex="1">
          <mxGeometry x="85" y="1110" width="90" height="90" as="geometry" />
        </mxCell>
        <mxCell id="Z43VmYHaNltjWb4G_ZYM-17" style="edgeStyle=orthogonalEdgeStyle;rounded=0;orthogonalLoop=1;jettySize=auto;html=1;" parent="1" source="Z43VmYHaNltjWb4G_ZYM-14" target="Z43VmYHaNltjWb4G_ZYM-16" edge="1">
          <mxGeometry relative="1" as="geometry" />
        </mxCell>
        <mxCell id="Z43VmYHaNltjWb4G_ZYM-14" value="Enter Accession Number" style="rounded=0;whiteSpace=wrap;html=1;" parent="1" vertex="1">
          <mxGeometry x="640" y="110" width="120" height="60" as="geometry" />
        </mxCell>
        <mxCell id="Z43VmYHaNltjWb4G_ZYM-19" style="edgeStyle=orthogonalEdgeStyle;rounded=0;orthogonalLoop=1;jettySize=auto;html=1;" parent="1" source="Z43VmYHaNltjWb4G_ZYM-16" target="Z43VmYHaNltjWb4G_ZYM-18" edge="1">
          <mxGeometry relative="1" as="geometry" />
        </mxCell>
        <mxCell id="Z43VmYHaNltjWb4G_ZYM-16" value="Enter Duedate" style="rounded=0;whiteSpace=wrap;html=1;" parent="1" vertex="1">
          <mxGeometry x="640" y="190" width="120" height="60" as="geometry" />
        </mxCell>
        <mxCell id="Z43VmYHaNltjWb4G_ZYM-25" style="edgeStyle=orthogonalEdgeStyle;rounded=0;orthogonalLoop=1;jettySize=auto;html=1;entryX=0.5;entryY=0;entryDx=0;entryDy=0;" parent="1" source="Z43VmYHaNltjWb4G_ZYM-18" target="Z43VmYHaNltjWb4G_ZYM-3" edge="1">
          <mxGeometry relative="1" as="geometry" />
        </mxCell>
        <mxCell id="Z43VmYHaNltjWb4G_ZYM-18" value="Scan Fingerprint" style="rounded=0;whiteSpace=wrap;html=1;" parent="1" vertex="1">
          <mxGeometry x="640" y="270" width="120" height="60" as="geometry" />
        </mxCell>
        <mxCell id="Z43VmYHaNltjWb4G_ZYM-23" style="edgeStyle=orthogonalEdgeStyle;rounded=0;orthogonalLoop=1;jettySize=auto;html=1;entryX=0.5;entryY=0;entryDx=0;entryDy=0;" parent="1" source="Z43VmYHaNltjWb4G_ZYM-20" target="Z43VmYHaNltjWb4G_ZYM-22" edge="1">
          <mxGeometry relative="1" as="geometry" />
        </mxCell>
        <mxCell id="Z43VmYHaNltjWb4G_ZYM-20" value="Enter Accession Number" style="rounded=0;whiteSpace=wrap;html=1;" parent="1" vertex="1">
          <mxGeometry x="640" y="350" width="120" height="60" as="geometry" />
        </mxCell>
        <mxCell id="Z43VmYHaNltjWb4G_ZYM-26" style="edgeStyle=orthogonalEdgeStyle;rounded=0;orthogonalLoop=1;jettySize=auto;html=1;entryX=0.5;entryY=0;entryDx=0;entryDy=0;" parent="1" source="Z43VmYHaNltjWb4G_ZYM-22" target="Z43VmYHaNltjWb4G_ZYM-4" edge="1">
          <mxGeometry relative="1" as="geometry" />
        </mxCell>
        <mxCell id="Z43VmYHaNltjWb4G_ZYM-22" value="Scan Fingerprint" style="rounded=0;whiteSpace=wrap;html=1;" parent="1" vertex="1">
          <mxGeometry x="640" y="430" width="120" height="60" as="geometry" />
        </mxCell>
        <mxCell id="Z43VmYHaNltjWb4G_ZYM-32" style="edgeStyle=orthogonalEdgeStyle;rounded=0;orthogonalLoop=1;jettySize=auto;html=1;" parent="1" source="Z43VmYHaNltjWb4G_ZYM-29" target="Z43VmYHaNltjWb4G_ZYM-31" edge="1">
          <mxGeometry relative="1" as="geometry">
            <Array as="points">
              <mxPoint x="355" y="700" />
              <mxPoint x="355" y="700" />
            </Array>
          </mxGeometry>
        </mxCell>
        <mxCell id="Z43VmYHaNltjWb4G_ZYM-34" style="edgeStyle=orthogonalEdgeStyle;rounded=0;orthogonalLoop=1;jettySize=auto;html=1;entryX=0;entryY=0.5;entryDx=0;entryDy=0;" parent="1" source="Z43VmYHaNltjWb4G_ZYM-29" target="Z43VmYHaNltjWb4G_ZYM-33" edge="1">
          <mxGeometry relative="1" as="geometry" />
        </mxCell>
        <mxCell id="Z43VmYHaNltjWb4G_ZYM-29" value="Update" style="rhombus;whiteSpace=wrap;html=1;" parent="1" vertex="1">
          <mxGeometry x="320" y="505" width="70" height="70" as="geometry" />
        </mxCell>
        <mxCell id="Z43VmYHaNltjWb4G_ZYM-39" style="edgeStyle=orthogonalEdgeStyle;rounded=0;orthogonalLoop=1;jettySize=auto;html=1;entryX=0;entryY=0.5;entryDx=0;entryDy=0;" parent="1" source="Z43VmYHaNltjWb4G_ZYM-31" target="Z43VmYHaNltjWb4G_ZYM-38" edge="1">
          <mxGeometry relative="1" as="geometry" />
        </mxCell>
        <mxCell id="Z43VmYHaNltjWb4G_ZYM-41" style="edgeStyle=orthogonalEdgeStyle;rounded=0;orthogonalLoop=1;jettySize=auto;html=1;entryX=0;entryY=0.5;entryDx=0;entryDy=0;" parent="1" source="Z43VmYHaNltjWb4G_ZYM-31" target="Z43VmYHaNltjWb4G_ZYM-40" edge="1">
          <mxGeometry relative="1" as="geometry">
            <Array as="points">
              <mxPoint x="355" y="780" />
            </Array>
          </mxGeometry>
        </mxCell>
        <mxCell id="Z43VmYHaNltjWb4G_ZYM-31" value="Delete" style="rhombus;whiteSpace=wrap;html=1;" parent="1" vertex="1">
          <mxGeometry x="320" y="665" width="70" height="70" as="geometry" />
        </mxCell>
        <mxCell id="Z43VmYHaNltjWb4G_ZYM-36" style="edgeStyle=orthogonalEdgeStyle;rounded=0;orthogonalLoop=1;jettySize=auto;html=1;" parent="1" source="Z43VmYHaNltjWb4G_ZYM-33" target="Z43VmYHaNltjWb4G_ZYM-35" edge="1">
          <mxGeometry relative="1" as="geometry" />
        </mxCell>
        <mxCell id="Z43VmYHaNltjWb4G_ZYM-33" value="Enter Book Details" style="rounded=0;whiteSpace=wrap;html=1;" parent="1" vertex="1">
          <mxGeometry x="640" y="510" width="120" height="60" as="geometry" />
        </mxCell>
        <mxCell id="Z43VmYHaNltjWb4G_ZYM-43" style="edgeStyle=orthogonalEdgeStyle;rounded=0;orthogonalLoop=1;jettySize=auto;html=1;entryX=1;entryY=0.5;entryDx=0;entryDy=0;" parent="1" source="Z43VmYHaNltjWb4G_ZYM-35" target="Z43VmYHaNltjWb4G_ZYM-40" edge="1">
          <mxGeometry relative="1" as="geometry">
            <Array as="points">
              <mxPoint x="780" y="620" />
              <mxPoint x="780" y="780" />
            </Array>
          </mxGeometry>
        </mxCell>
        <mxCell id="Z43VmYHaNltjWb4G_ZYM-35" value="Save" style="rounded=0;whiteSpace=wrap;html=1;" parent="1" vertex="1">
          <mxGeometry x="640" y="590" width="120" height="60" as="geometry" />
        </mxCell>
        <mxCell id="Z43VmYHaNltjWb4G_ZYM-42" style="edgeStyle=orthogonalEdgeStyle;rounded=0;orthogonalLoop=1;jettySize=auto;html=1;entryX=0.5;entryY=0;entryDx=0;entryDy=0;" parent="1" source="Z43VmYHaNltjWb4G_ZYM-38" target="Z43VmYHaNltjWb4G_ZYM-40" edge="1">
          <mxGeometry relative="1" as="geometry" />
        </mxCell>
        <mxCell id="Z43VmYHaNltjWb4G_ZYM-38" value="Delete Book Information" style="rounded=0;whiteSpace=wrap;html=1;" parent="1" vertex="1">
          <mxGeometry x="640" y="670" width="120" height="60" as="geometry" />
        </mxCell>
        <mxCell id="Z43VmYHaNltjWb4G_ZYM-40" value="Display Book Informations" style="rounded=0;whiteSpace=wrap;html=1;" parent="1" vertex="1">
          <mxGeometry x="640" y="750" width="120" height="60" as="geometry" />
        </mxCell>
        <mxCell id="Z43VmYHaNltjWb4G_ZYM-49" style="edgeStyle=orthogonalEdgeStyle;rounded=0;orthogonalLoop=1;jettySize=auto;html=1;" parent="1" source="Z43VmYHaNltjWb4G_ZYM-44" target="Z43VmYHaNltjWb4G_ZYM-6" edge="1">
          <mxGeometry relative="1" as="geometry">
            <Array as="points">
              <mxPoint x="700" y="920" />
              <mxPoint x="125" y="920" />
            </Array>
          </mxGeometry>
        </mxCell>
        <mxCell id="Z43VmYHaNltjWb4G_ZYM-44" value="Display Borrow History" style="rounded=0;whiteSpace=wrap;html=1;" parent="1" vertex="1">
          <mxGeometry x="640" y="830" width="120" height="60" as="geometry" />
        </mxCell>
        <mxCell id="Z43VmYHaNltjWb4G_ZYM-45" value="Display Return History" style="rounded=0;whiteSpace=wrap;html=1;" parent="1" vertex="1">
          <mxGeometry x="640" y="960" width="120" height="60" as="geometry" />
        </mxCell>
        <mxCell id="Z43VmYHaNltjWb4G_ZYM-54" style="edgeStyle=orthogonalEdgeStyle;rounded=0;orthogonalLoop=1;jettySize=auto;html=1;entryX=0;entryY=0.5;entryDx=0;entryDy=0;" parent="1" source="Z43VmYHaNltjWb4G_ZYM-51" target="Z43VmYHaNltjWb4G_ZYM-53" edge="1">
          <mxGeometry relative="1" as="geometry" />
        </mxCell>
        <mxCell id="Z43VmYHaNltjWb4G_ZYM-57" style="edgeStyle=orthogonalEdgeStyle;rounded=0;orthogonalLoop=1;jettySize=auto;html=1;entryX=0;entryY=0.5;entryDx=0;entryDy=0;" parent="1" source="Z43VmYHaNltjWb4G_ZYM-51" target="Z43VmYHaNltjWb4G_ZYM-55" edge="1">
          <mxGeometry relative="1" as="geometry">
            <Array as="points">
              <mxPoint x="355" y="1240" />
            </Array>
          </mxGeometry>
        </mxCell>
        <mxCell id="Z43VmYHaNltjWb4G_ZYM-51" value="Paid" style="rhombus;whiteSpace=wrap;html=1;" parent="1" vertex="1">
          <mxGeometry x="320" y="1120" width="70" height="70" as="geometry" />
        </mxCell>
        <mxCell id="Z43VmYHaNltjWb4G_ZYM-56" style="edgeStyle=orthogonalEdgeStyle;rounded=0;orthogonalLoop=1;jettySize=auto;html=1;" parent="1" source="Z43VmYHaNltjWb4G_ZYM-53" target="Z43VmYHaNltjWb4G_ZYM-55" edge="1">
          <mxGeometry relative="1" as="geometry" />
        </mxCell>
        <mxCell id="Z43VmYHaNltjWb4G_ZYM-53" value="Select Paid Overdue" style="rounded=0;whiteSpace=wrap;html=1;" parent="1" vertex="1">
          <mxGeometry x="640" y="1125" width="120" height="60" as="geometry" />
        </mxCell>
        <mxCell id="Z43VmYHaNltjWb4G_ZYM-55" value="Display Overdue Details" style="rounded=0;whiteSpace=wrap;html=1;" parent="1" vertex="1">
          <mxGeometry x="640" y="1210" width="120" height="60" as="geometry" />
        </mxCell>
        <mxCell id="Z43VmYHaNltjWb4G_ZYM-58" value="END" style="html=1;dashed=0;whiteSpace=wrap;shape=mxgraph.dfd.start" parent="1" vertex="1">
          <mxGeometry x="385" y="1280" width="80" height="30" as="geometry" />
        </mxCell>
        <mxCell id="Z43VmYHaNltjWb4G_ZYM-59" style="edgeStyle=orthogonalEdgeStyle;rounded=0;orthogonalLoop=1;jettySize=auto;html=1;entryX=0;entryY=0.5;entryDx=0;entryDy=0;entryPerimeter=0;" parent="1" source="Z43VmYHaNltjWb4G_ZYM-7" target="Z43VmYHaNltjWb4G_ZYM-58" edge="1">
          <mxGeometry relative="1" as="geometry">
            <Array as="points">
              <mxPoint x="130" y="1295" />
            </Array>
          </mxGeometry>
        </mxCell>
        <mxCell id="Z43VmYHaNltjWb4G_ZYM-60" style="edgeStyle=orthogonalEdgeStyle;rounded=0;orthogonalLoop=1;jettySize=auto;html=1;entryX=1;entryY=0.5;entryDx=0;entryDy=0;entryPerimeter=0;" parent="1" source="Z43VmYHaNltjWb4G_ZYM-55" target="Z43VmYHaNltjWb4G_ZYM-58" edge="1">
          <mxGeometry relative="1" as="geometry">
            <Array as="points">
              <mxPoint x="700" y="1295" />
            </Array>
          </mxGeometry>
        </mxCell>
        <mxCell id="Z43VmYHaNltjWb4G_ZYM-62" style="edgeStyle=orthogonalEdgeStyle;rounded=0;orthogonalLoop=1;jettySize=auto;html=1;entryX=0.5;entryY=0;entryDx=0;entryDy=0;" parent="1" source="Z43VmYHaNltjWb4G_ZYM-45" target="Z43VmYHaNltjWb4G_ZYM-7" edge="1">
          <mxGeometry relative="1" as="geometry">
            <Array as="points">
              <mxPoint x="700" y="1080" />
              <mxPoint x="130" y="1080" />
            </Array>
          </mxGeometry>
        </mxCell>
        <mxCell id="e2DBWJYDvQBzY5ssenAn-1" value="Y" style="text;html=1;strokeColor=none;fillColor=none;align=center;verticalAlign=middle;whiteSpace=wrap;rounded=0;" vertex="1" parent="1">
          <mxGeometry x="150" y="120" width="60" height="30" as="geometry" />
        </mxCell>
        <mxCell id="e2DBWJYDvQBzY5ssenAn-2" value="Y" style="text;html=1;strokeColor=none;fillColor=none;align=center;verticalAlign=middle;whiteSpace=wrap;rounded=0;" vertex="1" parent="1">
          <mxGeometry x="140" y="360" width="60" height="30" as="geometry" />
        </mxCell>
        <mxCell id="e2DBWJYDvQBzY5ssenAn-3" value="Y" style="text;html=1;strokeColor=none;fillColor=none;align=center;verticalAlign=middle;whiteSpace=wrap;rounded=0;" vertex="1" parent="1">
          <mxGeometry x="140" y="520" width="60" height="30" as="geometry" />
        </mxCell>
        <mxCell id="e2DBWJYDvQBzY5ssenAn-5" value="Y" style="text;html=1;strokeColor=none;fillColor=none;align=center;verticalAlign=middle;whiteSpace=wrap;rounded=0;" vertex="1" parent="1">
          <mxGeometry x="365" y="520" width="60" height="30" as="geometry" />
        </mxCell>
        <mxCell id="e2DBWJYDvQBzY5ssenAn-6" value="Y" style="text;html=1;strokeColor=none;fillColor=none;align=center;verticalAlign=middle;whiteSpace=wrap;rounded=0;" vertex="1" parent="1">
          <mxGeometry x="365" y="680" width="60" height="30" as="geometry" />
        </mxCell>
        <mxCell id="e2DBWJYDvQBzY5ssenAn-7" value="Y" style="text;html=1;strokeColor=none;fillColor=none;align=center;verticalAlign=middle;whiteSpace=wrap;rounded=0;" vertex="1" parent="1">
          <mxGeometry x="150" y="840" width="60" height="30" as="geometry" />
        </mxCell>
        <mxCell id="e2DBWJYDvQBzY5ssenAn-8" value="Y" style="text;html=1;strokeColor=none;fillColor=none;align=center;verticalAlign=middle;whiteSpace=wrap;rounded=0;" vertex="1" parent="1">
          <mxGeometry x="150" y="970" width="60" height="30" as="geometry" />
        </mxCell>
        <mxCell id="e2DBWJYDvQBzY5ssenAn-9" value="Y" style="text;html=1;strokeColor=none;fillColor=none;align=center;verticalAlign=middle;whiteSpace=wrap;rounded=0;" vertex="1" parent="1">
          <mxGeometry x="150" y="1130" width="60" height="30" as="geometry" />
        </mxCell>
        <mxCell id="e2DBWJYDvQBzY5ssenAn-10" value="Y" style="text;html=1;strokeColor=none;fillColor=none;align=center;verticalAlign=middle;whiteSpace=wrap;rounded=0;" vertex="1" parent="1">
          <mxGeometry x="370" y="1130" width="60" height="30" as="geometry" />
        </mxCell>
        <mxCell id="e2DBWJYDvQBzY5ssenAn-11" value="N" style="text;html=1;strokeColor=none;fillColor=none;align=center;verticalAlign=middle;whiteSpace=wrap;rounded=0;" vertex="1" parent="1">
          <mxGeometry x="330" y="1185" width="60" height="30" as="geometry" />
        </mxCell>
        <mxCell id="e2DBWJYDvQBzY5ssenAn-12" value="N" style="text;html=1;strokeColor=none;fillColor=none;align=center;verticalAlign=middle;whiteSpace=wrap;rounded=0;" vertex="1" parent="1">
          <mxGeometry x="105" y="1190" width="60" height="30" as="geometry" />
        </mxCell>
        <mxCell id="e2DBWJYDvQBzY5ssenAn-13" value="N" style="text;html=1;strokeColor=none;fillColor=none;align=center;verticalAlign=middle;whiteSpace=wrap;rounded=0;" vertex="1" parent="1">
          <mxGeometry x="90" y="1040" width="60" height="30" as="geometry" />
        </mxCell>
        <mxCell id="e2DBWJYDvQBzY5ssenAn-14" value="N" style="text;html=1;strokeColor=none;fillColor=none;align=center;verticalAlign=middle;whiteSpace=wrap;rounded=0;" vertex="1" parent="1">
          <mxGeometry x="25" y="850" width="60" height="30" as="geometry" />
        </mxCell>
        <mxCell id="e2DBWJYDvQBzY5ssenAn-15" value="N" style="text;html=1;strokeColor=none;fillColor=none;align=center;verticalAlign=middle;whiteSpace=wrap;rounded=0;" vertex="1" parent="1">
          <mxGeometry x="330" y="760" width="60" height="30" as="geometry" />
        </mxCell>
        <mxCell id="e2DBWJYDvQBzY5ssenAn-16" value="N" style="text;html=1;strokeColor=none;fillColor=none;align=center;verticalAlign=middle;whiteSpace=wrap;rounded=0;" vertex="1" parent="1">
          <mxGeometry x="330" y="570" width="60" height="30" as="geometry" />
        </mxCell>
        <mxCell id="e2DBWJYDvQBzY5ssenAn-17" value="N" style="text;html=1;strokeColor=none;fillColor=none;align=center;verticalAlign=middle;whiteSpace=wrap;rounded=0;" vertex="1" parent="1">
          <mxGeometry x="100" y="570" width="60" height="30" as="geometry" />
        </mxCell>
        <mxCell id="e2DBWJYDvQBzY5ssenAn-18" value="N" style="text;html=1;strokeColor=none;fillColor=none;align=center;verticalAlign=middle;whiteSpace=wrap;rounded=0;" vertex="1" parent="1">
          <mxGeometry x="80" y="410" width="60" height="30" as="geometry" />
        </mxCell>
        <mxCell id="e2DBWJYDvQBzY5ssenAn-19" value="N" style="text;html=1;strokeColor=none;fillColor=none;align=center;verticalAlign=middle;whiteSpace=wrap;rounded=0;" vertex="1" parent="1">
          <mxGeometry x="40" y="140" width="60" height="30" as="geometry" />
        </mxCell>
      </root>
    </mxGraphModel>
  </diagram>
</mxfile>
